<svg xmlns="http://www.w3.org/2000/svg" xmlns:xlink="http://www.w3.org/1999/xlink" width="25" height="44" viewBox="0 0 25 44"><defs><path id="spqja" d="M644.605 8610.53l-20.54 19.492 20.54 19.449c.395.392.395 1.03 0 1.423l-.716.713a1.016 1.016 0 0 1-1.432 0l-21.05-19.93a1.046 1.046 0 0 1-.01-.01 1.01 1.01 0 0 1-.286-.201l-.716-.712a1.003 1.003 0 0 1 0-1.424l22.062-20.936a1.014 1.014 0 0 1 1.432 0l.716.711c.395.393.395 1.03 0 1.425z"/></defs><g><g transform="translate(-620 -8608)"><use fill="#a8ca3f" xlink:href="#spqja"/></g></g></svg>